<svg width="100" height="17" viewBox="0 0 100 17" fill="none" xmlns="http://www.w3.org/2000/svg">
<path fill-rule="evenodd" clip-rule="evenodd" d="M3.33008 8.40039H4.42578C5.44987 8.40039 6.21614 8.19808 6.72461 7.79346C7.23308 7.38883 7.4873 6.79981 7.4873 6.02637C7.4873 5.24576 7.27425 4.66927 6.84814 4.29688C6.42204 3.92448 5.75424 3.73828 4.84473 3.73828H3.33008V8.40039ZM10.8496 5.9082C10.8496 7.59832 10.3215 8.89095 9.26514 9.78613C8.20882 10.6813 6.70672 11.1289 4.75879 11.1289H3.33008V16.7148H0V1.00977H5.0166C6.92156 1.00977 8.36995 1.41975 9.36182 2.23975C10.3537 3.05974 10.8496 4.28254 10.8496 5.9082ZM21.2304 16.7148L20.5966 15.082H20.5107C19.9592 15.7767 19.3917 16.2583 18.808 16.5269C18.2244 16.7954 17.4635 16.9297 16.5253 16.9297C15.3723 16.9297 14.4646 16.6003 13.8022 15.9414C13.1397 15.2825 12.8085 14.3444 12.8085 13.127C12.8085 11.8522 13.2543 10.9123 14.1459 10.3071C15.0375 9.70198 16.3821 9.36719 18.1796 9.30273L20.2636 9.23828V8.71191C20.2636 7.49446 19.6406 6.88574 18.3945 6.88574C17.4348 6.88574 16.3069 7.17578 15.0107 7.75586L13.9257 5.54297C15.3079 4.81966 16.8404 4.45801 18.5234 4.45801C20.1347 4.45801 21.37 4.80892 22.2294 5.51074C23.0888 6.21257 23.5185 7.27962 23.5185 8.71191V16.7148H21.2304ZM20.2636 11.1504L18.996 11.1934C18.0435 11.222 17.3346 11.3939 16.8691 11.709C16.4036 12.0241 16.1708 12.5039 16.1708 13.1484C16.1708 14.0723 16.7008 14.5342 17.7607 14.5342C18.5198 14.5342 19.1267 14.3158 19.5815 13.8789C20.0362 13.4421 20.2636 12.862 20.2636 12.1387V11.1504ZM33.6415 4.47949C34.0855 4.47949 34.4543 4.51172 34.7479 4.57617L34.5008 7.64844C34.2359 7.57682 33.9136 7.54102 33.534 7.54102C32.4885 7.54102 31.6739 7.80957 31.0902 8.34668C30.5065 8.88379 30.2147 9.63574 30.2147 10.6025V16.7148H26.9383V4.70508H29.4198L29.9032 6.72461H30.0643C30.4367 6.05143 30.9398 5.50895 31.5736 5.09717C32.2074 4.68538 32.8967 4.47949 33.6415 4.47949ZM40.1228 10.1836L41.5516 8.35742L44.9139 4.70508H48.6092L43.8396 9.91504L48.8992 16.7148H45.118L41.659 11.8486L40.2518 12.9766V16.7148H36.9754V0H40.2518V7.45508L40.0799 10.1836H40.1228ZM54.2527 8.40039H55.3484C56.3725 8.40039 57.1387 8.19808 57.6472 7.79346C58.1557 7.38883 58.4099 6.79981 58.4099 6.02637C58.4099 5.24576 58.1968 4.66927 57.7707 4.29688C57.3446 3.92448 56.6768 3.73828 55.7673 3.73828H54.2527V8.40039ZM61.7722 5.9082C61.7722 7.59832 61.244 8.89095 60.1877 9.78613C59.1314 10.6813 57.6293 11.1289 55.6814 11.1289H54.2527V16.7148H50.9226V1.00977H55.9392C57.8441 1.00977 59.2925 1.41975 60.2844 2.23975C61.2763 3.05974 61.7722 4.28254 61.7722 5.9082ZM72.153 16.7148L71.5192 15.082H71.4333C70.8818 15.7767 70.3143 16.2583 69.7306 16.5269C69.147 16.7954 68.3861 16.9297 67.4479 16.9297C66.2949 16.9297 65.3872 16.6003 64.7248 15.9414C64.0623 15.2825 63.7311 14.3444 63.7311 13.127C63.7311 11.8522 64.1769 10.9123 65.0685 10.3071C65.9601 9.70198 67.3047 9.36719 69.1022 9.30273L71.1862 9.23828V8.71191C71.1862 7.49446 70.5631 6.88574 69.317 6.88574C68.3574 6.88574 67.2295 7.17578 65.9333 7.75586L64.8483 5.54297C66.2305 4.81966 67.763 4.45801 69.446 4.45801C71.0573 4.45801 72.2926 4.80892 73.152 5.51074C74.0114 6.21257 74.4411 7.27962 74.4411 8.71191V16.7148H72.153ZM71.1862 11.1504L69.9186 11.1934C68.9661 11.222 68.2572 11.3939 67.7917 11.709C67.3262 12.0241 67.0934 12.5039 67.0934 13.1484C67.0934 14.0723 67.6234 14.5342 68.6833 14.5342C69.4424 14.5342 70.0493 14.3158 70.5041 13.8789C70.9588 13.4421 71.1862 12.862 71.1862 12.1387V11.1504ZM84.5641 4.47949C85.0081 4.47949 85.3769 4.51172 85.6705 4.57617L85.4234 7.64844C85.1585 7.57682 84.8362 7.54102 84.4566 7.54102C83.4111 7.54102 82.5965 7.80957 82.0128 8.34668C81.4291 8.88379 81.1373 9.63574 81.1373 10.6025V16.7148H77.8609V4.70508H80.3424L80.8258 6.72461H80.9869C81.3593 6.05143 81.8624 5.50895 82.4962 5.09717C83.13 4.68538 83.8193 4.47949 84.5641 4.47949ZM91.0454 10.1836L92.4741 8.35742L95.8364 4.70508H99.5318L94.7622 9.91504L99.8218 16.7148H96.0406L92.5816 11.8486L91.1743 12.9766V16.7148H87.898V0H91.1743V7.45508L91.0025 10.1836H91.0454Z" fill="#4DD0E1"/>
</svg>
